<?xml version="1.0" encoding="UTF-8" ?>
<!DOCTYPE svg PUBLIC "-//W3C//DTD SVG 1.1//EN" "http://www.w3.org/Graphics/SVG/1.1/DTD/svg11.dtd">
<svg width="185pt" height="192pt" viewBox="0 0 185 192" version="1.1" xmlns="http://www.w3.org/2000/svg">
<g id="#ffffffff">
</g>
<g id="#014874ff">
<path fill="#014874" opacity="1.00" d=" M 45.67 55.66 C 58.46 42.13 76.99 33.30 95.82 34.42 C 95.56 42.13 95.55 49.85 95.83 57.57 C 90.99 58.41 86.02 58.71 81.35 60.32 C 67.50 64.94 56.37 76.89 52.70 91.02 C 51.79 94.68 51.47 98.44 50.91 102.16 C 43.03 102.65 35.10 102.64 27.21 102.15 C 27.05 85.05 34.02 68.11 45.67 55.66 Z" />
</g>
<g id="#0092deff">
<path fill="#0092de" opacity="1.00" d=" M 95.82 34.42 C 126.40 32.91 155.22 56.42 162.15 85.86 C 164.18 95.19 165.51 105.18 162.80 114.51 C 140.56 114.48 118.32 114.57 96.08 114.46 C 95.15 106.61 95.50 98.67 95.83 90.80 C 110.11 90.09 124.43 90.83 138.72 90.50 C 134.98 78.35 126.37 67.62 114.71 62.28 C 108.86 59.22 102.23 58.60 95.83 57.57 C 95.55 49.85 95.56 42.13 95.82 34.42 Z" />
<path fill="#0092de" opacity="1.00" d=" M 28.29 114.51 C 36.31 114.39 44.35 114.17 52.37 114.64 C 54.71 119.26 56.35 124.29 59.49 128.47 C 66.23 137.67 76.49 144.44 87.83 146.19 C 90.37 146.62 92.93 147.00 95.48 147.47 C 95.78 155.22 95.68 162.98 95.54 170.73 C 82.03 171.47 68.74 166.64 57.48 159.45 C 42.33 149.17 31.20 132.68 28.29 114.51 Z" />
</g>
</svg>
