<?xml version="1.0" encoding="UTF-8" ?>
<!DOCTYPE svg PUBLIC "-//W3C//DTD SVG 1.1//EN" "http://www.w3.org/Graphics/SVG/1.1/DTD/svg11.dtd">
<svg width="960pt" height="540pt" viewBox="0 0 960 540" version="1.1" xmlns="http://www.w3.org/2000/svg">
<g id="#ffffffff">
<path fill="#ffffff" opacity="1.00" d=" M 0.00 0.00 L 379.32 0.00 C 384.84 16.73 395.36 31.86 409.52 42.41 C 425.25 54.45 445.26 60.77 465.06 59.87 C 486.79 59.21 508.04 49.76 523.26 34.27 C 532.79 24.69 539.87 12.80 544.16 0.00 L 960.00 0.00 L 960.00 540.00 L 817.48 540.00 C 818.49 527.96 815.39 515.56 808.07 505.87 C 799.29 493.95 784.92 486.32 770.09 486.06 C 753.46 485.36 736.93 494.00 727.83 507.88 C 721.43 517.22 718.93 528.79 719.89 540.00 L 0.00 540.00 L 0.00 382.62 C 15.50 380.62 30.42 374.34 42.58 364.50 C 60.47 350.39 72.01 328.67 74.13 306.03 C 75.91 287.69 71.47 268.87 61.82 253.19 C 48.56 231.49 25.20 216.52 0.00 213.27 L 0.00 0.00 Z" />
</g>
<g id="#154060ff">
<path fill="#154060" opacity="1.00" d=" M 379.32 0.00 L 544.16 0.00 C 539.87 12.80 532.79 24.69 523.26 34.27 C 508.04 49.76 486.79 59.21 465.06 59.87 C 445.26 60.77 425.25 54.45 409.52 42.41 C 395.36 31.86 384.84 16.73 379.32 0.00 Z" />
<path fill="#154060" opacity="1.00" d=" M 727.83 507.88 C 736.93 494.00 753.46 485.36 770.09 486.06 C 784.92 486.32 799.29 493.95 808.07 505.87 C 815.39 515.56 818.49 527.96 817.48 540.00 L 719.89 540.00 C 718.93 528.79 721.43 517.22 727.83 507.88 Z" />
</g>
<g id="#ace0eeff">
<path fill="#ace0ee" opacity="1.00" d=" M 0.00 213.27 C 25.20 216.52 48.56 231.49 61.82 253.19 C 71.47 268.87 75.91 287.69 74.13 306.03 C 72.01 328.67 60.47 350.39 42.58 364.50 C 30.42 374.34 15.50 380.62 0.00 382.62 L 0.00 213.27 Z" />
</g>
</svg>
